<?xml version="1.0" encoding="UTF-8" standalone="no"?>
<svg
   version="1.1"
   id="Layer_1"
   x="0px"
   y="0px"
   width="100%"
   viewBox="0 0 560 768"
   enable-background="new 0 0 560 768"
   xml:space="preserve"
   sodipodi:docname="pawn2.svg"
   inkscape:version="1.4.2 (ebf0e940, 2025-05-08)"
   xmlns:inkscape="http://www.inkscape.org/namespaces/inkscape"
   xmlns:sodipodi="http://sodipodi.sourceforge.net/DTD/sodipodi-0.dtd"
   xmlns="http://www.w3.org/2000/svg"
   xmlns:svg="http://www.w3.org/2000/svg"><defs
   id="defs2" /><sodipodi:namedview
   id="namedview2"
   pagecolor="#ffffff"
   bordercolor="#000000"
   borderopacity="0.25"
   inkscape:showpageshadow="2"
   inkscape:pageopacity="0.0"
   inkscape:pagecheckerboard="0"
   inkscape:deskcolor="#d1d1d1"
   inkscape:zoom="0.6"
   inkscape:cx="-58.333333"
   inkscape:cy="554.16667"
   inkscape:window-width="1728"
   inkscape:window-height="1056"
   inkscape:window-x="0"
   inkscape:window-y="33"
   inkscape:window-maximized="1"
   inkscape:current-layer="Layer_1" />
<path
   fill="#000000"
   opacity="1"
   stroke="none"
   d="m 228.62892,373.1498 c -18.08863,-4.72509 -39.26395,-13.64967 -54.4788,-24.19543 -6.31896,-4.3798 -6.19713,-8.49218 -7.34572,-16.60318 -1.26821,-8.95561 1.15552,-19.57436 0.93418,-28.62024 0.68826,-17.12499 12.68633,-28.97257 26.9369,-33.85419 -31.41065,-35.77772 -31.15129,-89.25869 -26.34326,-118.50475 5.34468,-32.51039 23.76106,-59.86688 52.37103,-79.175519 37.98487,-25.635686 111.75151,-56.497044 191.06789,6.307719 32.83988,26.00347 73.39256,120.42135 18.29759,193.55784 4.00399,2.19829 17.76463,9.58865 19.90426,15.81101 2.93547,8.5368 3.82002,23.62926 3.76503,34.6222 -0.0444,8.88042 -2.95186,21.45137 -9.67086,26.14976 -14.2116,9.93764 -34.00415,19.68291 -50.41384,25.6001 M 201.83914,212.97997 c 8.00771,22.85831 22.31598,41.54244 43.91231,55.20682 32.59453,20.62312 67.81243,25.25795 105.17406,13.22762 23.62322,-7.60651 42.51508,-21.27395 56.59414,-40.3964 19.52767,-26.52296 24.83929,-55.58818 16.18222,-86.30212 C 415.92392,127.1212 397.99374,105.99287 371.45989,90.855619 329.58612,66.967177 270.76078,71.752589 234.94668,103.0496 c -34.48953,30.13948 -45.81865,66.65993 -33.10757,109.93037 m -5.3289,102.3939 c -1.78989,8.72339 2.34591,13.50027 11.19772,16.81348 12.19329,4.56391 24.53694,8.41751 37.38759,10.87031 35.26039,6.73026 70.88473,7.07292 106.52638,3.94445 21.71297,-1.90588 43.03753,-6.02283 63.13587,-14.38209 12.89802,-5.36451 12.79512,-5.26406 12.83703,-18.40512 0.0124,-3.93638 -1.56631,-6.17826 -5.26414,-7.92268 -7.41174,-3.49641 -15.07673,-6.28556 -23.06452,-8.44555 -3.26838,-0.88379 -5.94977,-0.48496 -8.70701,1.22958 -14.43905,8.97863 -30.55953,14.46315 -47.44709,17.59003 -38.85522,7.1945 -75.52125,1.44004 -109.58136,-17.38797 -2.89045,-1.5978 -5.71749,-2.1242 -8.8078,-1.26972 -8.1262,2.24699 -16.17403,4.65684 -23.53722,8.71214 -3.30412,1.81972 -5.31027,4.00891 -4.67545,8.65314 z"
   class="highlight"
   id="highlightHead"
   style="display:inline;fill:#ff0000;stroke-width:1.11083"
   inkscape:label="highlightHead"
   sodipodi:nodetypes="cssscssscsssccscssssccscsscssscsssc" /><path
   fill="#00000"
   opacity="1"
   stroke="none"
   d="m 439.58058,520.45791 c 1.33968,3.01894 2.95311,5.53139 3.5735,8.29058 3.27858,14.58187 13.83372,18.48155 26.06805,21.84203 22.10747,6.07237 43.28607,14.88269 61.41612,30.16559 5.19075,4.37564 9.55247,9.5875 12.9277,15.66773 2.83752,5.11155 4.28286,10.49279 4.23199,16.52338 -0.16945,20.08505 -0.73703,40.20768 0.20221,60.24581 0.54614,11.64922 -3.98355,19.30911 -11.66055,26.47592 -23.0382,21.50733 -50.32576,34.39822 -79.35962,43.72149 -58.57,18.80791 -118.7804,21.82249 -179.3822,19.30353 -39.70936,-1.65061 -78.97062,-7.39725 -116.98623,-20.23572 -26.19707,-8.84697 -51.03762,-20.65722 -72.391536,-39.39881 -3.371462,-2.95899 -6.476654,-6.28227 -9.506506,-9.63537 -3.956496,-4.37863 -5.738717,-9.55589 -5.677373,-15.77021 0.202098,-20.47067 0.471339,-40.95669 -0.06844,-61.414 -0.389624,-14.7661 5.88711,-25.59931 16.019359,-34.5196 18.746156,-16.50379 41.151656,-25.4581 64.332276,-31.67458 12.04207,-3.22938 19.01412,-9.00107 24.31572,-21.12196 21.5647,-49.3025 41.00494,-95.19794 45.49694,-153.72116 1.19523,-15.57181 6.28655,-30.6931 7.58501,-46.25265 7.71033,-310.253455 127.84266,-105.85899 159.78783,3.54136 6.54602,22.41768 6.76676,33.29179 11.73806,66.33891 6.03538,40.12067 18.66387,77.81704 34.5126,114.86979 0.90298,2.111 1.76147,4.24303 2.82511,6.75794 m -254.13762,68.66002 c -2.97159,5.7262 -5.94322,11.45232 -8.8769,17.10544 36.53549,29.94688 226.52757,29.89573 267.50485,0.19038 0.20789,-1.87799 -0.9454,-3.26227 -1.74701,-4.7243 -23.53265,-42.91762 -43.21478,-87.67312 -58.52336,-134.55411 -13.95124,-42.72435 -23.17734,-86.47409 -26.11404,-131.58325 -0.31472,-4.83407 -1.69081,-6.43845 -6.22028,-5.98 -12.78422,1.29376 -25.58629,2.23178 -38.45084,2.42447 -14.72601,0.22051 -29.3355,-1.25733 -43.97517,-2.40911 -3.26895,-0.2572 -5.56475,0.0518 -5.82102,4.60693 -2.35285,41.82029 -10.50612,82.42618 -22.74793,122.26664 -14.09921,45.88546 -32.42684,89.7699 -55.0283,132.65691 m -50.08689,4.22712 c -8.19894,4.30872 -16.68716,8.02642 -24.07472,13.93578 -3.80173,3.04105 -5.73124,6.56531 -5.66584,11.75949 0.20412,16.21772 0.16834,32.441 0.004,48.65968 -0.037,3.6512 1.15125,6.14721 3.69048,8.48419 9.49242,8.73636 20.27629,15.36287 31.59998,20.9173 36.76134,18.03179 75.99356,25.91307 116.04093,29.24831 23.56112,1.96224 47.23669,2.41559 70.95004,1.90395 45.98479,-0.99217 91.09074,-6.81732 134.4841,-23.56742 17.81908,-6.87822 34.71528,-15.69683 49.33505,-28.77584 2.45309,-2.19458 3.48918,-4.55761 3.46208,-7.96428 -0.1336,-16.7987 -0.11715,-33.59947 -0.0147,-50.39865 0.02,-3.30141 -0.57791,-6.11569 -3.07152,-8.24625 -10.95403,-9.35965 -23.80112,-14.75051 -37.65262,-20.46829 1.78075,5.92854 4.89971,9.75687 7.12391,14.05857 5.64616,10.92018 3.87532,19.28404 -5.97192,26.34727 -9.63347,6.90988 -20.3383,11.51713 -31.28269,15.50147 -32.74099,11.91946 -66.73778,16.78593 -101.10799,18.2893 -45.56768,1.9931 -91.05488,0.87288 -135.90837,-9.35234 -51.75292,-11.79798 -59.20983,-17.50829 -66.83291,-52.87237 -0.84958,-3.94126 3.83304,-7.13152 6.51304,-12.17282 -4.76602,1.89238 -7.82291,3.10609 -11.62065,4.71295"
   class="highlight"
   id="highlightBase"
   style="display:inline;fill:#ff0000;stroke-width:1.13046"
   inkscape:label="highlightBase"
   sodipodi:nodetypes="cssssssssscsssssssssssscccccsscssssccsssscssssssccsssssscc" /><path
   style="display:inline;fill:#ff6600"
   d="m 309.16667,70 -90,41.66667 -26.66667,97.5 63.33333,79.16666 99.16667,5.83334 70.83333,-75.83334 -14.16666,-96.66666 z"
   id="headFill"
   inkscape:label="headFill" /><path
   style="display:inline;fill:#aa4400"
   d="M 195.83333,295 200,336.66667 314.16667,360 427.5,334.16667 422.5,292.5 356.66667,286.66667 304.16667,302.5 237.5,275.83333 Z"
   id="collarFill"
   inkscape:label="collarFill" /><path
   style="display:inline;fill:#ff6600"
   d="m 254.16667,354.16667 -5.83334,60 -37.5,118.33333 -41.66666,83.33333 140,29.16667 145,-27.5 -43.33334,-77.5 -47.5,-187.5 z"
   id="bodyFill"
   inkscape:label="bodyFill" /><path
   style="display:inline;fill:#ffccaa"
   d="m 178.33333,577.5 -55,20.83333 -14.16666,55 10.83333,38.33334 86.66667,30 L 389.16667,730 505,684.16667 510,610 l -62.5,-28.33333 5.83333,35 -55,24.16666 L 270,650 177.5,622.5 Z"
   id="baseFill"
   inkscape:label="baseFill" /><path
   fill="#000000"
   opacity="1"
   stroke="none"
   d="m 429.17566,535.88635 c 1.21515,2.6045 2.67859,4.77204 3.2413,7.15247 2.97379,12.58014 12.54767,15.94446 23.64466,18.84363 20.05227,5.23877 39.26202,12.83966 55.70663,26.02459 4.70819,3.77497 8.66443,8.27137 11.72589,13.51691 2.57373,4.40985 3.8847,9.05237 3.83856,14.25513 -0.15368,17.32782 -0.66852,34.68811 0.18341,51.97546 0.49537,10.05005 -3.61322,16.65845 -10.57654,22.84143 -20.89648,18.55487 -45.64727,29.67615 -71.98202,37.71954 -53.12509,16.22602 -107.7381,18.82679 -162.70612,16.65363 -36.0178,-1.42401 -71.62918,-6.38177 -106.1107,-17.45782 -23.76167,-7.63251 -46.29295,-17.82148 -65.66172,-33.9903 -3.05803,-2.55279 -5.87456,-5.41986 -8.62274,-8.31268 -3.588684,-3.77753 -5.205223,-8.24408 -5.149582,-13.60535 0.183311,-17.66052 0.427521,-35.33429 -0.06208,-52.98328 -0.353402,-12.73907 5.339822,-22.08514 14.530132,-29.78088 17.00345,-14.23822 37.32604,-21.96332 58.35169,-27.32642 10.92259,-2.78607 17.24649,-7.76544 22.05523,-18.22241 19.55996,-42.53445 35.32227,-86.19644 43.67249,-132.36471 2.40166,-13.27863 3.297,-26.73386 4.47475,-40.15744 0.36969,-4.21393 -1.4457,-5.7872 -5.26786,-6.87339 -15.61222,-4.43661 -30.58276,-10.32656 -43.71464,-20.22848 -5.45387,-4.1124 -8.40021,-9.08026 -8.12009,-16.14279 0.33653,-8.48484 0.23444,-16.9961 0.0434,-25.48969 -0.12947,-5.75567 2.13179,-10.28656 5.98238,-14.29581 5.49728,-5.72387 11.87669,-10.12533 19.13725,-13.33251 1.9146,-0.84571 4.09682,-1.40934 5.75827,-3.60569 -27.11041,-33.5934 -37.05824,-71.63705 -27.56831,-114.0361 6.72749,-30.0571 22.8943,-54.55057 47.23555,-73.235076 48.2964,-37.072632 116.78807,-35.758762 164.90989,5.922615 41.92927,36.317581 66.14203,116.942241 12.48679,182.017231 4.58902,2.74091 9.72443,4.336 14.02451,7.45966 3.10321,2.25424 6.23184,4.43295 9.00348,7.1094 5.40518,5.21946 8.556,11.12226 7.90115,19.05399 -0.58768,7.11823 -0.57697,14.34912 -0.0743,21.47699 0.54736,7.76276 -2.92917,12.94907 -8.72833,17.3606 -12.26597,9.33093 -26.17017,15.16153 -40.84189,19.33425 -7.94413,2.25937 -7.75385,2.41712 -7.23392,10.56 1.23316,19.3129 3.99979,38.38059 8.2417,57.23215 7.70178,34.22739 19.33395,67.13461 33.70932,99.10089 0.81903,1.82123 1.59772,3.66058 2.56247,5.83026 m -230.51193,59.23462 c -2.69536,4.94013 -5.39072,9.88019 -8.05169,14.75727 33.13901,25.83587 205.46865,25.79174 242.63653,0.16424 0.18856,-1.62018 -0.85752,-2.81445 -1.5846,-4.07574 C 410.319,568.94067 392.46661,530.32904 378.58118,489.8837 365.92691,453.02438 357.5585,415.28046 354.89481,376.36371 c -0.28547,-4.17047 -1.53363,-5.5546 -5.64203,-5.15909 -11.59574,1.11615 -23.20768,1.92542 -34.87629,2.09164 -13.35702,0.19025 -26.60833,-1.08471 -39.88705,-2.07839 -2.96506,-0.2219 -5.04742,0.0448 -5.27988,3.97448 -2.13412,36.07938 -9.52945,71.11106 -20.63319,105.48236 -12.7885,39.58646 -29.41231,77.44663 -49.91264,114.44626 m 18.26954,-379.50441 c 6.91143,21.46275 19.26084,39.00617 37.90053,51.83629 28.1322,19.36401 58.52863,23.71588 90.7753,12.42004 20.3891,-7.14212 36.69458,-19.97512 48.84616,-37.93008 16.85425,-24.90367 21.43869,-52.19437 13.9668,-81.03313 -6.71308,-25.90997 -22.18854,-45.74835 -45.08979,-59.96143 -36.14108,-22.429985 -86.91299,-17.936737 -117.82398,11.4495 -29.76778,28.29938 -39.54589,62.59015 -28.57502,103.21881 m -63.70016,383.15126 c -7.43675,3.71723 -15.13587,6.92456 -21.83663,12.02271 -3.44831,2.62359 -5.19845,5.66406 -5.13914,10.1452 0.18516,13.99139 0.1527,27.98761 0.004,41.97986 -0.0335,3.14996 1.04421,5.30334 3.34737,7.31952 8.60999,7.53705 18.39135,13.2539 28.66233,18.04583 33.34385,15.55646 68.92889,22.35584 105.25329,25.23322 21.37079,1.69287 42.84537,2.08399 64.35422,1.64258 41.70987,-0.85596 82.62259,-5.88147 121.98193,-20.33216 16.16254,-5.93402 31.48801,-13.54205 44.74866,-24.82562 2.22504,-1.89331 3.1648,-3.93194 3.14023,-6.87097 -0.12119,-14.49261 -0.10626,-28.98706 -0.0134,-43.4801 0.0183,-2.84821 -0.5242,-5.27613 -2.78598,-7.11426 -9.9357,-8.07477 -21.58847,-12.72559 -34.15228,-17.65845 1.6152,5.11469 4.44421,8.41748 6.46164,12.12866 5.12128,9.42109 3.51504,16.63678 -5.41675,22.73041 -8.73791,5.96131 -18.44757,9.9361 -28.37451,13.37348 -29.69727,10.2832 -60.53357,14.48162 -91.70859,15.77862 -41.33151,1.71948 -82.59006,0.75305 -123.27377,-8.06848 -19.44943,-4.21722 -38.41461,-9.86877 -55.40869,-20.61456 -10.47039,-6.62061 -11.91315,-14.568 -5.21115,-24.9997 1.90687,-2.96801 3.4767,-6.15252 5.90754,-10.50177 -4.32295,1.63257 -7.09566,2.67969 -10.54034,4.06598 m 59.10098,-287.00879 c -1.54484,8.1908 2.02474,12.67603 9.6647,15.78696 10.52398,4.28528 21.17774,7.9036 32.26908,10.20666 30.43309,6.31934 61.18031,6.64109 91.94246,3.70362 18.74038,-1.78952 37.14551,-5.65512 54.49231,-13.50403 11.13223,-5.03699 11.04342,-4.94266 11.07959,-17.28143 0.0108,-3.69605 -1.35187,-5.80106 -4.54346,-7.43897 -6.39703,-3.28296 -13.01266,-5.90182 -19.90689,-7.92993 -2.82092,-0.82983 -5.13522,-0.45535 -7.51499,1.15451 -12.46228,8.43045 -26.37579,13.58014 -40.95138,16.51611 -33.53577,6.75525 -65.18207,1.35212 -94.57921,-16.32638 -2.49472,-1.50024 -4.93474,-1.99451 -7.60197,-1.1922 -7.01369,2.1098 -13.95974,4.37253 -20.31488,8.18024 -2.85178,1.70861 -4.58327,3.76416 -4.03536,8.12484 z"
   id="path1"
   style="display:inline;fill:#000000"
   inkscape:label="outline" />
<path
   fill="#000000"
   opacity="1"
   stroke="none"
   d="m 275.66986,164.74168 c -3.7832,6.67514 -5.50714,13.47516 -5.84763,20.80562 -0.44372,9.55284 -6.89804,15.85111 -15.38832,15.6798 -8.82005,-0.17797 -14.65817,-6.88254 -14.65057,-16.82492 0.0259,-33.89406 27.92259,-65.41823 61.58791,-69.55134 4.60772,-0.5657 9.19497,-1.57428 13.88919,-0.35964 7.13165,1.84533 11.86297,7.7752 11.67145,14.87863 -0.19111,7.08839 -4.71757,12.58607 -11.87369,14.12642 -5.03205,1.08311 -10.28455,0.65127 -15.27158,2.27827 -10.24765,3.34326 -18.1839,9.57173 -24.11676,18.96716 z"
   id="path2"
   style="display:inline;fill:#000000"
   inkscape:label="headCurve" />
</svg>
